<?xml version="1.0" encoding="UTF-8" standalone="no"?>
<svg
   version="1.1"
   width="2591.856"
   height="3363.429"
   viewBox="0 0 2591.856 3363.4289"
   id="svg5854"
   sodipodi:docname="zetext.svg"
   inkscape:version="1.1.1 (c3084ef, 2021-09-22)"
   inkscape:export-filename="/Users/sergeych/dev/ZeText/src/main/resources/zetext.png"
   inkscape:export-xdpi="18.959999"
   inkscape:export-ydpi="18.959999"
   xmlns:inkscape="http://www.inkscape.org/namespaces/inkscape"
   xmlns:sodipodi="http://sodipodi.sourceforge.net/DTD/sodipodi-0.dtd"
   xmlns="http://www.w3.org/2000/svg"
   xmlns:svg="http://www.w3.org/2000/svg"
   xmlns:rdf="http://www.w3.org/1999/02/22-rdf-syntax-ns#"
   xmlns:cc="http://creativecommons.org/ns#"
   xmlns:dc="http://purl.org/dc/elements/1.1/">
  <metadata
     id="metadata5860">
    <rdf:RDF>
      <cc:Work
         rdf:about="">
        <dc:format>image/svg+xml</dc:format>
        <dc:type
           rdf:resource="http://purl.org/dc/dcmitype/StillImage" />
      </cc:Work>
    </rdf:RDF>
  </metadata>
  <defs
     id="defs5858">
    <rect
       x="1799.9987"
       y="2241.7139"
       width="560"
       height="920"
       id="rect4024" />
  </defs>
  <sodipodi:namedview
     pagecolor="#ffffff"
     bordercolor="#666666"
     borderopacity="1"
     objecttolerance="10"
     gridtolerance="10"
     guidetolerance="10"
     inkscape:pageopacity="0"
     inkscape:pageshadow="2"
     inkscape:window-width="1296"
     inkscape:window-height="1081"
     id="namedview5856"
     showgrid="true"
     inkscape:zoom="0.22559528"
     inkscape:cx="500.897"
     inkscape:cy="1837.3611"
     inkscape:window-x="351"
     inkscape:window-y="177"
     inkscape:window-maximized="0"
     inkscape:current-layer="svg5854"
     inkscape:pagecheckerboard="true">
    <inkscape:grid
       type="xygrid"
       id="grid5862"
       originx="239.9987"
       originy="401.71385" />
  </sodipodi:namedview>
  <path
     id="rect72"
     style="fill:#002b00;fill-rule:evenodd;stroke:#00d400;stroke-width:84.0409;stroke-linejoin:round;stroke-miterlimit:4;stroke-dasharray:none"
     d="M 255.98557,41.71385 C 137.27928,41.71385 41.7145,142.03761 41.7145,266.6553 v 2830.1178 c 0,124.6176 95.56478,224.9414 214.27107,224.9414 H 2342.2123 c 118.7063,0 214.2711,-100.3238 214.2711,-224.9414 V 903.84488 L 1799.9987,41.71385 Z" />
  <path
     id="path1664"
     style="fill:#002b00;fill-rule:evenodd;stroke:#00d400;stroke-width:76.5493;stroke-linejoin:round"
     inkscape:transform-center-x="21.608713"
     inkscape:transform-center-y="26.158892"
     d="m 2556.4828,921.71342 c -254.017,0 -508.034,0 -762.0512,0 0,-293.33339 0,-586.66678 0,-880.000169 257.4848,271.378799 518.8359,541.721779 735.3789,851.293939 8.7971,9.66391 17.6695,19.25311 26.6723,28.70623 z"
     sodipodi:nodetypes="ccccc" />
  <g
     id="g5793"
     style="fill:#ffff00;fill-opacity:1;stroke-linejoin:miter"
     transform="matrix(1.0029346,0.01293779,-0.0129503,0.97498633,446.50571,944.89232)" />
  <g
     id="g5795"
     style="fill:#ffff00;fill-opacity:1;stroke-linejoin:miter"
     transform="matrix(1.0029346,0.01293779,-0.0129503,0.97498633,446.50571,944.89232)" />
  <g
     id="g5797"
     style="fill:#ffff00;fill-opacity:1;stroke-linejoin:miter"
     transform="matrix(1.0029346,0.01293779,-0.0129503,0.97498633,446.50571,944.89232)" />
  <g
     id="g5799"
     style="fill:#ffff00;fill-opacity:1;stroke-linejoin:miter"
     transform="matrix(1.0029346,0.01293779,-0.0129503,0.97498633,446.50571,944.89232)" />
  <g
     id="g5801"
     style="fill:#ffff00;fill-opacity:1;stroke-linejoin:miter"
     transform="matrix(1.0029346,0.01293779,-0.0129503,0.97498633,446.50571,944.89232)" />
  <g
     id="g5803"
     style="fill:#ffff00;fill-opacity:1;stroke-linejoin:miter"
     transform="matrix(1.0029346,0.01293779,-0.0129503,0.97498633,446.50571,944.89232)" />
  <g
     id="g5805"
     style="fill:#ffff00;fill-opacity:1;stroke-linejoin:miter"
     transform="matrix(1.0029346,0.01293779,-0.0129503,0.97498633,446.50571,944.89232)" />
  <g
     id="g5807"
     style="fill:#ffff00;fill-opacity:1;stroke-linejoin:miter"
     transform="matrix(1.0029346,0.01293779,-0.0129503,0.97498633,446.50571,944.89232)" />
  <g
     id="g5809"
     style="fill:#ffff00;fill-opacity:1;stroke-linejoin:miter"
     transform="matrix(1.0029346,0.01293779,-0.0129503,0.97498633,446.50571,944.89232)" />
  <g
     id="g5811"
     style="fill:#ffff00;fill-opacity:1;stroke-linejoin:miter"
     transform="matrix(1.0029346,0.01293779,-0.0129503,0.97498633,446.50571,944.89232)" />
  <g
     id="g5813"
     style="fill:#ffff00;fill-opacity:1;stroke-linejoin:miter"
     transform="matrix(1.0029346,0.01293779,-0.0129503,0.97498633,446.50571,944.89232)" />
  <g
     id="g5815"
     style="fill:#ffff00;fill-opacity:1;stroke-linejoin:miter"
     transform="matrix(1.0029346,0.01293779,-0.0129503,0.97498633,446.50571,944.89232)" />
  <g
     id="g5817"
     style="fill:#ffff00;fill-opacity:1;stroke-linejoin:miter"
     transform="matrix(1.0029346,0.01293779,-0.0129503,0.97498633,446.50571,944.89232)" />
  <g
     id="g5819"
     style="fill:#ffff00;fill-opacity:1;stroke-linejoin:miter"
     transform="matrix(1.0029346,0.01293779,-0.0129503,0.97498633,446.50571,944.89232)" />
  <g
     id="g5821"
     style="fill:#ffff00;fill-opacity:1;stroke-linejoin:miter"
     transform="matrix(1.0029346,0.01293779,-0.0129503,0.97498633,446.50571,944.89232)" />
  <g
     id="g5823"
     style="fill:#ffff00;fill-opacity:1;stroke-linejoin:miter"
     transform="matrix(1.0029346,0.01293779,-0.0129503,0.97498633,446.50571,944.89232)" />
  <g
     id="g5825"
     style="fill:#ffff00;fill-opacity:1;stroke-linejoin:miter"
     transform="matrix(1.0029346,0.01293779,-0.0129503,0.97498633,446.50571,944.89232)" />
  <g
     id="g5827"
     style="fill:#ffff00;fill-opacity:1;stroke-linejoin:miter"
     transform="matrix(1.0029346,0.01293779,-0.0129503,0.97498633,446.50571,944.89232)" />
  <g
     id="g5829"
     style="fill:#ffff00;fill-opacity:1;stroke-linejoin:miter"
     transform="matrix(1.0029346,0.01293779,-0.0129503,0.97498633,446.50571,944.89232)" />
  <g
     id="g5831"
     style="fill:#ffff00;fill-opacity:1;stroke-linejoin:miter"
     transform="matrix(1.0029346,0.01293779,-0.0129503,0.97498633,446.50571,944.89232)" />
  <g
     id="g5833"
     style="fill:#ffff00;fill-opacity:1;stroke-linejoin:miter"
     transform="matrix(1.0029346,0.01293779,-0.0129503,0.97498633,446.50571,944.89232)" />
  <g
     id="g5835"
     style="fill:#ffff00;fill-opacity:1;stroke-linejoin:miter"
     transform="matrix(1.0029346,0.01293779,-0.0129503,0.97498633,446.50571,944.89232)" />
  <g
     id="g5837"
     style="fill:#ffff00;fill-opacity:1;stroke-linejoin:miter"
     transform="matrix(1.0029346,0.01293779,-0.0129503,0.97498633,446.50571,944.89232)" />
  <g
     id="g5839"
     style="fill:#ffff00;fill-opacity:1;stroke-linejoin:miter"
     transform="matrix(1.0029346,0.01293779,-0.0129503,0.97498633,446.50571,944.89232)" />
  <g
     id="g1173"
     style="fill:#00ff00"
     transform="matrix(0.76493648,0,0,0.7906073,4.6851497,687.1623)">
    <g
       id="g5767"
       style="fill:#00ff00;fill-opacity:1;stroke:#000000;stroke-linejoin:miter"
       transform="matrix(0.98838409,0.01293779,-0.01276242,0.97498614,432.07536,936.90049)">
      <path
         inkscape:connector-curvature="0"
         id="path5765"
         d="m -124.47928,-187.97366 v 0 l 1283.08148,-18.27298 c 30.9248,-0.44042 56.3513,24.27208 56.7917,55.19688 0.4405,30.92481 -24.2719,56.35135 -55.1968,56.791764 v 0 l -1283.0815,18.27298 c -30.9248,0.440416 -56.35135,-24.272074 -56.79176,-55.196884 -0.44042,-30.9248 24.27208,-56.35135 55.19688,-56.79176 z"
         style="fill:#00ff00;stroke:#000000" />
    </g>
    <g
       id="g1061"
       style="fill:#00ff00;stroke:#00d400">
      <path
         style="fill:#00ff00;fill-opacity:1;stroke:#00d400;stroke-width:0.981746;stroke-linejoin:miter"
         d="m 1619.9987,840.01059 v 0 L 381.41498,2302.3912 c -19.59758,23.1386 -54.50548,26.2178 -77.96896,6.8775 -23.4635,-19.3402 -26.59744,-53.7763 -6.99984,-76.9149 v 0 L 1535.0299,769.97329 c 19.5976,-23.13869 54.5055,-26.21785 77.969,-6.8776 23.4635,19.3403 26.5974,53.7763 6.9998,76.9149 z"
         id="path5769"
         inkscape:connector-curvature="0" />
      <g
         id="g5775"
         style="fill:#00ff00;fill-opacity:1;stroke:#00d400;stroke-linejoin:miter"
         transform="matrix(0.98838409,0.01293779,-0.01276242,0.97498614,407.01617,939.89919)">
        <path
           inkscape:connector-curvature="0"
           id="path5773"
           d="m -50.843006,1313.6282 v 0 L 1304.673,1295.6409 c 60.6947,-0.8054 62.0189,101.7426 1.3241,102.548 l -1353.84318,27.3992 c -30.916875,0.8277 -56.65084,-23.5647 -57.47841,-54.4815 -0.82758,-30.9169 23.56461,-56.6508 54.481484,-57.4784 z"
           sodipodi:nodetypes="cccccsc"
           style="fill:#00ff00;stroke:#00d400" />
      </g>
      <g
         id="g5779"
         style="fill:#00ff00;fill-opacity:1;stroke:#00d400;stroke-linejoin:miter"
         transform="matrix(0.98838409,0.01293779,-0.01276242,0.97498614,440.63302,944.89279)">
        <path
           inkscape:connector-curvature="0"
           id="path5777"
           d="m 1182.8457,489.01547 v 0 L 450.9419,1390.1217 c -19.499,24.0068 -54.76743,27.6611 -78.77424,8.1621 -24.0068,-19.499 -27.6611,-54.7673 -8.16211,-78.7742 v 0 L 1095.9094,418.40335 c 19.499,-24.0068 54.7674,-27.6611 78.7742,-8.16211 24.0068,19.49899 27.6611,54.76743 8.1621,78.77423 z"
           style="fill:#00ff00;stroke:#00d400" />
      </g>
      <g
         id="g5783"
         style="fill:#00ff00;fill-opacity:1;stroke:#00d400;stroke-linejoin:miter"
         transform="matrix(0.98838409,0.01293779,-0.01276242,0.97498614,440.63302,944.89279)">
        <path
           inkscape:connector-curvature="0"
           id="path5781"
           d="m 445.34692,1316.706 v 0 l 832.06738,750.2457 c 22.9695,20.7109 24.8007,56.1208 4.0899,79.0903 -20.7109,22.9695 -56.1209,24.8008 -79.0904,4.0898 v 0 L 370.34644,1399.8862 c -22.96954,-20.7108 -24.8006,-56.1208 -4.08979,-79.0903 20.71082,-22.9695 56.12073,-24.8007 79.09027,-4.0899 z"
           style="fill:#00ff00;stroke:#00d400" />
      </g>
      <g
         id="g5787"
         style="fill:#00ff00;fill-opacity:1;stroke:#00d400;stroke-linejoin:miter"
         transform="matrix(0.98838409,0.01293779,-0.01276242,0.97498614,440.63302,944.89279)">
        <path
           inkscape:connector-curvature="0"
           id="path5785"
           d="m 1200.7449,2067.9336 v 0 l 432.5401,-424.8344 c 22.0651,-21.6718 57.5209,-21.3532 79.1928,0.7118 21.6719,22.0651 21.3532,57.5209 -0.7118,79.1928 v 0 l -432.5402,424.8342 c -22.065,21.6718 -57.5208,21.3532 -79.1927,-0.7118 -21.6719,-22.0649 -21.3533,-57.5207 0.7118,-79.1926 z"
           style="fill:#00ff00;stroke:#00d400" />
      </g>
      <g
         id="g5791"
         style="fill:#00ff00;fill-opacity:1;stroke:#00d400;stroke-linejoin:miter"
         transform="matrix(0.98838409,0.01293779,-0.01276242,0.97498614,440.63302,944.89279)">
        <path
           inkscape:connector-curvature="0"
           id="path5789"
           d="m 1174.3335,409.31616 v 0 l 446.3766,355.89258 c 24.1826,19.28056 28.1565,54.51446 8.8758,78.69702 -19.2806,24.18254 -54.5142,28.15644 -78.6969,8.87584 v 0 L 1104.5125,496.88904 c -24.1827,-19.28058 -28.1565,-54.51444 -8.8759,-78.69702 19.2806,-24.18259 54.5143,-28.15644 78.6969,-8.87586 z"
           style="fill:#00ff00;stroke:#00d400" />
      </g>
      <g
         id="g5843"
         style="fill:#00ff00;fill-opacity:1;stroke:#00d400;stroke-linejoin:miter"
         transform="matrix(0.98838409,0.01293779,-0.01276242,0.97498614,440.63302,944.89279)">
        <path
           inkscape:connector-curvature="0"
           id="path5841"
           d="m 1646.9193,432.07608 v 0 l 2.5858,232.93792 c 0.3065,27.6125 -21.8293,50.2454 -49.4419,50.5519 -27.6125,0.30654 -50.2455,-21.8294 -50.552,-49.44194 v 0 l -2.5858,-232.93783 c -0.3065,-27.61255 21.8294,-50.24543 49.4419,-50.55193 27.6126,-0.30653 50.2455,21.82933 50.552,49.44188 z"
           style="fill:#00ff00;stroke:#00d400" />
      </g>
      <g
         id="g5847"
         style="fill:#00ff00;fill-opacity:1;stroke:#00d400;stroke-linejoin:miter"
         transform="matrix(0.98838409,0.01293779,-0.01276242,0.97498614,440.63302,944.89279)">
        <path
           inkscape:connector-curvature="0"
           id="path5845"
           d="m 1784.5442,561.54596 v 0 l 4.7947,337.9574 c 0.3917,27.61144 -21.6742,50.31254 -49.2857,50.70428 -27.6114,0.39173 -50.3126,-21.67424 -50.7043,-49.2857 v 0 l -4.7947,-337.9574 c -0.3917,-27.61144 21.6742,-50.31254 49.2856,-50.70429 27.6115,-0.39172 50.3127,21.67425 50.7044,49.28571 z"
           style="fill:#00ff00;stroke:#00d400" />
      </g>
      <g
         id="g5851"
         style="fill:#00ff00;fill-opacity:1;stroke:#00d400;stroke-linejoin:miter"
         transform="matrix(0.98838409,0.01293779,-0.01276242,0.97498614,440.63302,944.89279)">
        <path
           inkscape:connector-curvature="0"
           id="path5849"
           d="m 1787.5493,434.6322 v 0 0.5172 h -99.9999 v -0.5172 0 -0.5172 h 99.9999 v 0.5172 0 m -99.9999,0 v 0 -0.5172 c 0,-27.61427 22.3856,-50 49.9999,-50 27.6145,0 50,22.38573 50,50 v 0 0.5172 0 0.5172 c 0,27.6144 -22.3855,50 -50,50 -27.6143,0 -49.9999,-22.38585 -49.9999,-50 v 0 z"
           style="fill:#00ff00;stroke:#00d400" />
      </g>
    </g>
  </g>
  <text
     xml:space="preserve"
     id="text4022"
     style="font-style:normal;font-weight:normal;font-size:136.063px;line-height:1.25;font-family:sans-serif;white-space:pre;shape-inside:url(#rect4024);fill:#00ff00;fill-opacity:1;stroke:none"
     transform="matrix(10.058252,0,0,12.063095,-16344.429,-25643.617)"><tspan
       x="1799.998"
       y="2365.8492"
       id="tspan251">t</tspan></text>
  <path
     style="fill:#00d400;stroke:none;stroke-width:1.00733px;stroke-linecap:butt;stroke-linejoin:miter;stroke-opacity:1"
     d="m 1805.5889,81.71321 v 820.00016 h 730.5995 L 1825.8833,81.71321"
     id="path9433"
     sodipodi:nodetypes="cccc" />
</svg>
